<?xml version="1.0" encoding="UTF-8" standalone="no"?>
<!-- Created with Inkscape (http://www.inkscape.org/) -->

<svg
   width="999.99994"
   height="835.46039"
   viewBox="0 0 26458331 22104890"
   version="1.1"
   id="svg1"
   sodipodi:docname="Santiago2023_B.svg"
   inkscape:version="1.3 (0e150ed6c4, 2023-07-21)"
   xml:space="preserve"
   xmlns:inkscape="http://www.inkscape.org/namespaces/inkscape"
   xmlns:sodipodi="http://sodipodi.sourceforge.net/DTD/sodipodi-0.dtd"
   xmlns="http://www.w3.org/2000/svg"
   xmlns:svg="http://www.w3.org/2000/svg"
   xmlns:rdf="http://www.w3.org/1999/02/22-rdf-syntax-ns#"
   xmlns:cc="http://creativecommons.org/ns#"
   xmlns:dc="http://purl.org/dc/elements/1.1/"><title
     id="title10">Santiago 2023</title><sodipodi:namedview
     id="namedview1"
     pagecolor="#ffffff"
     bordercolor="#666666"
     borderopacity="1.0"
     inkscape:showpageshadow="true"
     inkscape:pageopacity="0.0"
     inkscape:pagecheckerboard="false"
     inkscape:deskcolor="#d1d1d1"
     inkscape:document-units="px"
     showgrid="false"
     showborder="true"
     borderlayer="true"
     showguides="true"
     inkscape:zoom="0.14336591"
     inkscape:cx="345.27038"
     inkscape:cy="279.00636"
     inkscape:window-width="1366"
     inkscape:window-height="705"
     inkscape:window-x="-8"
     inkscape:window-y="-8"
     inkscape:window-maximized="1"
     inkscape:current-layer="layer-MC1"><inkscape:page
       x="0"
       y="0"
       width="26458332"
       height="22104890"
       id="page1"
       margin="0"
       bleed="0" /></sodipodi:namedview><defs
     id="defs1" /><g
     inkscape:label="Capa 1"
     inkscape:groupmode="layer"
     id="layer1"
     transform="translate(19704783,3471327.5)" /><g
     id="layer-MC0"
     inkscape:groupmode="layer"
     inkscape:label="Capa 2"
     transform="matrix(26458.333,0,0,26458.335,41294793,3471327.5)" /><g
     id="layer-MC1"
     inkscape:groupmode="layer"
     inkscape:label="Capa 1"
     transform="matrix(26458.333,0,0,26458.335,41294793,3471327.5)"><g
       id="g4"
       transform="matrix(3.1228609,0,0,3.1228609,3145.3673,-1523.3396)"
       style="stroke-width:0.320219"><path
         id="path109"
         d="m -1473.2019,678.47231 c -1.5187,0 -2.58,-0.42 -3.6,-1.452 l 1.4973,-1.49333 c 0.52,0.52666 1.02,0.90533 2.1027,0.90533 1.6653,0 2.684,-1.032 2.684,-2.988 v -9.65333 h 2.2466 v 9.82133 c 0,3.11333 -2.2053,4.86 -4.9306,4.86"
         style="fill:#0074ff;fill-opacity:1;fill-rule:nonzero;stroke:none;stroke-width:0.426958"
         clip-path="none" /><path
         id="path111"
         d="m -1458.4942,678.47884 v -1.21333 c -0.728,0.79866 -1.748,1.19866 -2.808,1.19866 -1.0827,0 -1.9774,-0.356 -2.6014,-0.96666 -0.812,-0.8 -1.0613,-1.81067 -1.0613,-3.00934 v -6.88266 h 2.1227 v 6.568 c 0,1.66133 0.936,2.37733 2.1226,2.37733 1.1854,0 2.184,-0.73733 2.184,-2.37733 v -6.568 h 2.1227 v 10.87333 z"
         style="fill:#0074ff;fill-opacity:1;fill-rule:nonzero;stroke:none;stroke-width:0.426958"
         clip-path="none" /><path
         id="path113"
         d="m -1447.472,670.70791 c -0.332,-0.79733 -1.0787,-1.34267 -2.0734,-1.34267 -0.9946,0 -1.7613,0.54534 -2.0933,1.34267 -0.208,0.48133 -0.2493,0.79733 -0.2707,1.44667 h 4.7267 c -0.02,-0.64934 -0.083,-0.96534 -0.2893,-1.44667 m -4.4374,2.93467 c 0,1.824 0.9547,2.97733 2.6747,2.97733 1.1813,0 1.804,-0.336 2.5507,-1.09067 l 1.3466,1.27867 c -1.0773,1.09067 -2.0933,1.656 -3.9386,1.656 -2.6334,0 -4.7254,-1.404 -4.7254,-5.45067 0,-3.43733 1.7614,-5.42933 4.456,-5.42933 2.82,0 4.4574,2.096 4.4574,5.11467 v 0.944 z"
         style="fill:#0074ff;fill-opacity:1;fill-rule:nonzero;stroke:none;stroke-width:0.426958"
         clip-path="none" /><path
         id="path115"
         d="m -1438.6902,669.49044 c -1.9147,0 -2.164,1.66267 -2.164,3.34667 0,1.68133 0.2493,3.34533 2.164,3.34533 1.9146,0 2.1426,-1.664 2.1426,-3.34533 0,-1.684 -0.228,-3.34667 -2.1426,-3.34667 m -0.2494,13.31867 c -1.6026,0 -2.6226,-0.37867 -3.7253,-1.40934 l 1.352,-1.368 c 0.6667,0.632 1.2493,0.94667 2.2893,0.94667 1.7894,0 2.476,-1.28267 2.476,-2.71333 v -1.368 c -0.7693,0.92533 -1.6426,1.22133 -2.7253,1.22133 -1.0613,0 -1.936,-0.35867 -2.5173,-0.948 -1.02,-1.032 -1.1867,-2.52533 -1.1867,-4.33333 0,-1.81067 0.1667,-3.30534 1.1867,-4.33467 0.5813,-0.59067 1.4773,-0.92667 2.5386,-0.92667 1.1227,0 1.976,0.29467 2.7667,1.26267 v -1.252 h 2.06 v 10.72 c 0,2.60933 -1.7067,4.50267 -4.5147,4.50267"
         style="fill:#0074ff;fill-opacity:1;fill-rule:nonzero;stroke:none;stroke-width:0.426958"
         clip-path="none" /><path
         id="path117"
         d="m -1425.7292,670.10644 c -0.3934,-0.39867 -0.9334,-0.608 -1.5547,-0.608 -0.6213,0 -1.14,0.20933 -1.5333,0.608 -0.6427,0.648 -0.7254,1.75867 -0.7254,2.912 0,1.152 0.083,2.26267 0.7254,2.912 0.3933,0.39867 0.912,0.62933 1.5333,0.62933 0.6213,0 1.1613,-0.23066 1.5547,-0.62933 0.6413,-0.64933 0.724,-1.76 0.724,-2.912 0,-1.15333 -0.083,-2.264 -0.724,-2.912 m 1.5946,7.10267 c -0.684,0.712 -1.7186,1.25733 -3.1493,1.25733 -1.4293,0 -2.4453,-0.54533 -3.1293,-1.25733 -0.9934,-1.048 -1.2427,-2.38934 -1.2427,-4.19067 0,-1.78 0.2493,-3.12133 1.2427,-4.16933 0.684,-0.71334 1.7,-1.25734 3.1293,-1.25734 1.4307,0 2.4653,0.544 3.1493,1.25734 0.9947,1.048 1.244,2.38933 1.244,4.16933 0,1.80133 -0.2493,3.14267 -1.244,4.19067"
         style="fill:#0074ff;fill-opacity:1;fill-rule:nonzero;stroke:none;stroke-width:0.426958"
         clip-path="none" /><path
         id="path119"
         d="m -1416.7214,678.53604 c -1.72,0 -3.1707,-0.29333 -4.4147,-1.528 l 1.3893,-1.40533 c 0.8494,0.88 1.9894,1.11066 3.0254,1.11066 1.284,0 2.3,-0.46133 2.3,-1.46666 0,-0.71334 -0.3934,-1.17334 -1.4094,-1.25734 l -1.6786,-0.148 c -1.968,-0.16666 -3.108,-1.06666 -3.108,-2.932 0,-2.07333 1.7613,-3.248 3.9573,-3.248 1.576,0 2.9227,0.336 3.896,1.19467 l -1.3253,1.36267 c -0.664,-0.56667 -1.596,-0.776 -2.5907,-0.776 -1.264,0 -1.9067,0.56533 -1.9067,1.36133 0,0.62933 0.332,1.11067 1.4507,1.21467 l 1.6587,0.148 c 1.968,0.168 3.128,1.11066 3.128,2.996 0,2.22133 -1.8654,3.37333 -4.372,3.37333"
         style="fill:#0074ff;fill-opacity:1;fill-rule:nonzero;stroke:none;stroke-width:0.426958"
         clip-path="none" /><path
         id="path121"
         d="m -1399.9076,665.80297 h -3.1774 v 4.88133 h 3.1774 c 1.528,0 2.5666,-0.88533 2.5666,-2.42933 0,-1.54533 -1.0386,-2.452 -2.5666,-2.452 m 0.1226,6.90133 h -3.3 v 5.76667 h -2.2 v -14.66533 h 5.5 c 2.8307,0 4.644,1.89466 4.644,4.44933 0,2.55333 -1.8133,4.44933 -4.644,4.44933"
         style="fill:#0074ff;fill-opacity:1;fill-rule:nonzero;stroke:none;stroke-width:0.426958"
         clip-path="none" /><path
         id="path123"
         d="m -1387.2663,673.65457 h -2.464 c -1.2427,0 -1.8854,0.56533 -1.8854,1.528 0,0.964 0.6014,1.508 1.9267,1.508 0.808,0 1.408,-0.0627 1.968,-0.608 0.3107,-0.31333 0.4547,-0.816 0.4547,-1.56933 z m 0.041,4.81867 v -1.09067 c -0.7653,0.77467 -1.4907,1.088 -2.7947,1.088 -1.3053,0 -2.1746,-0.31333 -2.8173,-0.96267 -0.5387,-0.56533 -0.828,-1.38266 -0.828,-2.28266 0,-1.78 1.2213,-3.05734 3.624,-3.05734 h 2.7747 v -0.75466 c 0,-1.34 -0.6627,-1.98934 -2.2987,-1.98934 -1.16,0 -1.7187,0.272 -2.2987,1.02667 l -1.3866,-1.32 c 0.9933,-1.172 2.0293,-1.528 3.768,-1.528 2.8786,0 4.328,1.236 4.328,3.64267 v 7.228 z"
         style="fill:#0074ff;fill-opacity:1;fill-rule:nonzero;stroke:none;stroke-width:0.426958"
         clip-path="none" /><path
         id="path125"
         d="m -1375.9291,678.47097 v -6.54533 c 0,-1.67334 -0.9427,-2.39334 -2.1374,-2.39334 -1.1933,0 -2.1986,0.74134 -2.1986,2.39334 v 6.54533 h -2.136 V 667.6083 h 2.0933 v 1.204 c 0.7347,-0.80533 1.76,-1.208 2.828,-1.208 1.0907,0 1.9907,0.36 2.62,0.97467 0.816,0.80533 1.068,1.82133 1.068,3.02933 v 6.86267 z"
         style="fill:#0074ff;fill-opacity:1;fill-rule:nonzero;stroke:none;stroke-width:0.426958"
         clip-path="none" /><path
         id="path127"
         d="m -1344.2618,678.47231 v -6.54933 c 0,-1.67467 -0.944,-2.396 -2.1387,-2.396 -1.152,0 -2.2,0.74266 -2.2,2.28933 v 6.656 h -2.1373 v -6.54933 c 0,-1.67467 -0.944,-2.396 -2.1387,-2.396 -1.1947,0 -2.2013,0.74266 -2.2013,2.396 v 6.54933 h -2.1374 v -10.87333 h 2.096 v 1.208 c 0.7134,-0.78534 1.76,-1.208 2.8294,-1.208 1.32,0 2.348,0.52933 3.0186,1.568 0.8587,-1.05867 1.928,-1.568 3.3334,-1.568 1.0893,0 2.0533,0.35866 2.6826,0.97466 0.8174,0.80534 1.132,1.82134 1.132,3.03067 v 6.868 z"
         style="fill:#0074ff;fill-opacity:1;fill-rule:nonzero;stroke:none;stroke-width:0.426958"
         clip-path="none" /><path
         id="path129"
         d="m -1334.8494,660.49368 h 2.1226 v 22.64 h -2.1226 z"
         style="fill:#ff4f3a;fill-opacity:1;fill-rule:nonzero;stroke:none;stroke-width:0.426958"
         clip-path="none" /><path
         id="path131"
         d="m -1318.3379,665.79124 h -3.1814 v 4.88667 h 3.1814 c 1.5293,0 2.5693,-0.88667 2.5693,-2.43334 0,-1.54533 -1.04,-2.45333 -2.5693,-2.45333 m 0.1226,6.908 h -3.304 v 5.77333 h -2.2013 v -14.68133 h 5.5053 c 2.8334,0 4.6494,1.89733 4.6494,4.45333 0,2.55734 -1.816,4.45467 -4.6494,4.45467"
         style="fill:#0074ff;fill-opacity:1;fill-rule:nonzero;stroke:none;stroke-width:0.426958"
         clip-path="none" /><path
         id="path133"
         d="m -1305.252,673.65191 h -2.4667 c -1.244,0 -1.8867,0.56533 -1.8867,1.52933 0,0.96534 0.6014,1.50934 1.928,1.50934 0.808,0 1.4094,-0.0627 1.9694,-0.608 0.3106,-0.31334 0.456,-0.81734 0.456,-1.57067 z m 0.041,4.82 v -1.08933 c -0.7667,0.776 -1.492,1.08933 -2.7987,1.08933 -1.3053,0 -2.176,-0.31333 -2.8186,-0.96267 -0.5387,-0.56666 -0.8294,-1.38533 -0.8294,-2.28533 0,-1.78133 1.2227,-3.06 3.628,-3.06 h 2.7774 v -0.756 c 0,-1.34 -0.664,-1.99067 -2.3014,-1.99067 -1.16,0 -1.72,0.272 -2.3013,1.028 l -1.388,-1.32133 c 0.9947,-1.17333 2.0307,-1.52933 3.772,-1.52933 2.8813,0 4.332,1.236 4.332,3.64666 v 7.23067 z"
         style="fill:#0074ff;fill-opacity:1;fill-rule:nonzero;stroke:none;stroke-width:0.426958"
         clip-path="none" /><path
         id="path135"
         d="m -1294.586,670.24311 c -0.4827,-0.48667 -0.86,-0.72133 -1.5947,-0.72133 -1.1533,0 -2.1173,0.93333 -2.1173,2.41733 v 6.53467 h -2.14 v -10.88134 h 2.0973 v 1.292 c 0.5453,-0.76266 1.636,-1.292 2.832,-1.292 1.028,0 1.804,0.276 2.5373,1.01734 z"
         style="fill:#0074ff;fill-opacity:1;fill-rule:nonzero;stroke:none;stroke-width:0.426958"
         clip-path="none" /><path
         id="path137"
         d="m -1285.3751,673.65324 h -2.4654 c -1.244,0 -1.8853,0.56533 -1.8853,1.52933 0,0.964 0.6,1.508 1.9267,1.508 0.808,0 1.4093,-0.0627 1.9693,-0.60666 0.3107,-0.31467 0.4547,-0.81734 0.4547,-1.57067 z m 0.041,4.81867 v -1.08934 c -0.7653,0.776 -1.4907,1.08934 -2.7973,1.08934 -1.3054,0 -2.1747,-0.31334 -2.8174,-0.96267 -0.5386,-0.56533 -0.8293,-1.384 -0.8293,-2.284 0,-1.78133 1.2227,-3.05867 3.6267,-3.05867 h 2.776 v -0.756 c 0,-1.34133 -0.6627,-1.99066 -2.3,-1.99066 -1.16,0 -1.72,0.272 -2.3,1.028 l -1.388,-1.32134 c 0.9946,-1.172 2.0306,-1.52933 3.7706,-1.52933 2.8814,0 4.3307,1.23733 4.3307,3.64533 v 7.22934 z"
         style="fill:#0074ff;fill-opacity:1;fill-rule:nonzero;stroke:none;stroke-width:0.426958"
         clip-path="none" /><path
         id="path139"
         d="m -1276.2403,669.49564 c -1.9147,0 -2.2054,1.64 -2.2054,3.53333 0,1.89467 0.2907,3.55734 2.2054,3.55734 1.9146,0 2.1853,-1.66267 2.1853,-3.55734 0,-1.89333 -0.2707,-3.53333 -2.1853,-3.53333 m 3.1213,8.05867 c -0.5827,0.588 -1.4987,0.94666 -2.56,0.94666 -1.1227,0 -1.9973,-0.29466 -2.7667,-1.22 v 5.18 h -2.1226 v -14.88133 h 2.08 v 1.264 c 0.792,-0.96933 1.6453,-1.264 2.7893,-1.264 1.0613,0 1.9973,0.35867 2.58,0.94667 1.0613,1.07333 1.1867,2.884 1.1867,4.50266 0,1.62134 -0.1254,3.452 -1.1867,4.52534"
         style="fill:#0074ff;fill-opacity:1;fill-rule:nonzero;stroke:none;stroke-width:0.426958"
         clip-path="none" /><path
         id="path141"
         d="m -1263.4408,673.63897 h -2.468 c -1.2427,0 -1.8854,0.56533 -1.8854,1.52933 0,0.96534 0.6014,1.50934 1.928,1.50934 0.808,0 1.4094,-0.0627 1.9694,-0.608 0.3106,-0.31334 0.456,-0.81734 0.456,-1.572 z m 0.041,4.82 v -1.08933 c -0.7667,0.776 -1.492,1.08933 -2.7987,1.08933 -1.3066,0 -2.1773,-0.31333 -2.82,-0.96267 -0.5386,-0.56666 -0.828,-1.38533 -0.828,-2.28533 0,-1.78267 1.2227,-3.06 3.628,-3.06 h 2.7774 v -0.756 c 0,-1.34133 -0.664,-1.992 -2.3014,-1.992 -1.1613,0 -1.72,0.27333 -2.3013,1.028 l -1.3893,-1.32 c 0.996,-1.17467 2.032,-1.53067 3.7733,-1.53067 2.8827,0 4.3333,1.23734 4.3333,3.64667 v 7.232 z"
         style="fill:#0074ff;fill-opacity:1;fill-rule:nonzero;stroke:none;stroke-width:0.426958"
         clip-path="none" /><path
         id="path143"
         d="m -1252.526,678.46831 v -6.588 c 0,-1.66267 -0.9374,-2.37867 -2.1227,-2.37867 -1.1853,0 -2.184,0.73734 -2.184,2.37867 v 6.58533 h -2.1227 v -10.87866 h 2.08 v 1.19866 c 0.728,-0.79866 1.748,-1.19866 2.8094,-1.19866 1.0826,0 1.9773,0.35733 2.6013,0.968 0.8107,0.8 1.0613,1.80933 1.0613,3.008 v 6.90533 z"
         style="fill:#0074ff;fill-opacity:1;fill-rule:nonzero;stroke:none;stroke-width:0.426958"
         clip-path="none" /><path
         id="path145"
         d="m -1220.8302,678.46831 v -6.548 c 0,-1.676 -0.9427,-2.396 -2.1387,-2.396 -1.152,0 -2.2,0.74267 -2.2,2.28933 v 6.65467 h -2.1373 v -6.548 c 0,-1.676 -0.9427,-2.396 -2.1374,-2.396 -1.1946,0 -2.2013,0.74267 -2.2013,2.396 v 6.548 h -2.1373 v -10.872 h 2.0946 v 1.208 c 0.7134,-0.78533 1.7614,-1.208 2.8294,-1.208 1.3213,0 2.348,0.52933 3.0186,1.56667 0.86,-1.05734 1.928,-1.56667 3.3334,-1.56667 1.0893,0 2.0533,0.35867 2.6826,0.97467 0.8174,0.80533 1.132,1.82133 1.132,3.03066 v 6.86667 z"
         style="fill:#0074ff;fill-opacity:1;fill-rule:nonzero;stroke:none;stroke-width:0.426958"
         clip-path="none" /><path
         id="path147"
         d="m -1365.6856,667.11164 -2.264,6.516 h 4.4653 z m 3.812,11.36133 -0.9987,-2.948 h -5.7293 l -1,2.948 h -2.344 l 5.3213,-14.68133 h 1.7747 l 5.3213,14.68133 z"
         style="fill:#0074ff;fill-opacity:1;fill-rule:nonzero;stroke:none;stroke-width:0.426958"
         clip-path="none" /><path
         id="path149"
         d="m -1242.0606,667.11164 -2.2627,6.516 h 4.4653 z m 3.8133,11.36133 -0.9987,-2.948 h -5.7306 l -0.9987,2.948 h -2.3453 l 5.3226,-14.68133 h 1.7734 l 5.3226,14.68133 z"
         style="fill:#0074ff;fill-opacity:1;fill-rule:nonzero;stroke:none;stroke-width:0.426958"
         clip-path="none" /><path
         id="path151"
         d="m -1233.6732,489.10897 c -9.3734,0 -16.7174,7.33867 -16.7174,16.70533 0,9.36934 7.344,16.70667 16.7174,16.70667 9.3746,0 16.7173,-7.33733 16.7173,-16.70667 0,-9.36666 -7.3427,-16.70533 -16.7173,-16.70533 m 0,24.68267 c -4.4947,0 -7.756,-3.356 -7.756,-7.97734 0,-4.62133 3.2613,-7.976 7.756,-7.976 4.496,0 7.7573,3.35467 7.7573,7.976 0,4.62134 -3.2613,7.97734 -7.7573,7.97734"
         style="fill:#ff4f3a;fill-opacity:1;fill-rule:nonzero;stroke:none;stroke-width:0.426958"
         clip-path="none" /><path
         id="path153"
         d="m -1334.9298,475.97751 c -2.3747,0 -4.38,2.00533 -4.38,4.38 0,2.37333 2.0053,4.37867 4.38,4.37867 2.3733,0 4.38,-2.00534 4.38,-4.37867 0,-2.37467 -2.0067,-4.38 -4.38,-4.38"
         style="fill:#0074ff;fill-opacity:1;fill-rule:nonzero;stroke:none;stroke-width:0.426958"
         clip-path="none" /><path
         id="path155"
         d="m -1339.3094,522.51502 h 8.76 v -32.30267 h -8.76 z"
         style="fill:#0074ff;fill-opacity:1;fill-rule:nonzero;stroke:none;stroke-width:0.426958"
         clip-path="none" /><path
         id="path157"
         d="m -1439.0619,505.53737 c 0,4.51733 1.584,9.068 4.4453,12.19067 2.828,3.084 6.66,4.78133 10.668,4.78133 3.9973,0 7.0667,-1.27733 9.26,-3.80133 l 0.88,-1.02667 v 4.828 h 8.692 v -32.30133 h -8.7587 v 3.832 l -0.8133,-0.98667 c -2.1933,-2.52533 -5.5947,-3.94 -9.5907,-3.94 -4.0066,0 -7.5093,1.83467 -10.3373,4.91867 -2.8613,3.124 -4.4453,6.988 -4.4453,11.50533 m 16.976,-7.856 c 4.7933,0 8.0133,3.296 8.0133,8.19867 0,4.904 -3.22,8.196 -8.0133,8.196 -4.792,0 -8.0107,-3.292 -8.0107,-8.196 0,-4.90267 3.2187,-8.19867 8.0107,-8.19867"
         style="fill:#0074ff;fill-opacity:1;fill-rule:nonzero;stroke:none;stroke-width:0.426958"
         clip-path="none" /><path
         id="path159"
         d="m -1383.7214,497.42284 c 2.8573,0 6.0226,1.47467 6.0226,6.024 v 19.16267 h 8.76 v -20.26 c 0,-6.41467 -4.0253,-13.13867 -12.044,-13.13867 -3.892,0 -6.8,1.50533 -8.544,3.89333 l -0.7653,1.03334 v -3.91467 l -8.76,10e-4 v 32.38534 h 8.76 v -18.35067 c 0,-4.40667 2.5707,-6.836 6.5707,-6.836"
         style="fill:#0074ff;fill-opacity:1;fill-rule:nonzero;stroke:none;stroke-width:0.426958"
         clip-path="none" /><path
         id="path161"
         d="m -1357.7871,520.10764 c 1.7333,1.56667 4.4613,2.408 8.34,2.408 1.3453,0 2.992,-0.19333 4.4533,-0.48933 l 0.028,-7.72 c -2.8693,0.15733 -4.7373,-0.204 -5.9427,-0.94534 -0.8173,-0.50266 -1.2106,-1.38933 -1.2106,-2.344 v -13.18666 h 7.1533 v -7.6 h -7.1533 v -8.232 h -8.724 v 8.232 h -5.476 v 7.6 h 5.476 l -0.056,13.33466 c 0,4.34934 1.184,7.20134 3.112,8.94267"
         style="fill:#0074ff;fill-opacity:1;fill-rule:nonzero;stroke:none;stroke-width:0.426958"
         clip-path="none" /><path
         id="path163"
         d="m -1327.1407,505.54257 c 0,4.51733 1.5826,9.068 4.4453,12.19067 2.828,3.08533 6.66,4.78133 10.668,4.78133 3.9973,0 7.0667,-1.27733 9.26,-3.80133 l 0.88,-1.02667 v 4.828 h 8.692 v -32.30133 h -8.7587 v 3.832 l -0.8133,-0.98667 c -2.1933,-2.52533 -5.5947,-3.94 -9.5907,-3.94 -4.0066,0 -7.5093,1.83467 -10.3373,4.91867 -2.8627,3.124 -4.4453,6.988 -4.4453,11.50533 m 16.976,-7.856 c 4.7933,0 8.0133,3.296 8.0133,8.19867 0,4.904 -3.22,8.196 -8.0133,8.196 -4.792,0 -8.012,-3.292 -8.012,-8.196 0,-4.90267 3.22,-8.19867 8.012,-8.19867"
         style="fill:#0074ff;fill-opacity:1;fill-rule:nonzero;stroke:none;stroke-width:0.426958"
         clip-path="none" /><path
         id="path165"
         d="m -1458.6922,522.51657 c 9.7173,0 16.6213,-5.116 16.6213,-13.74533 0,-9.46 -7.608,-11.82667 -14.384,-13.872 -6.968,-2.11067 -8.0547,-3.51733 -8.0547,-5.56267 0,-1.78933 1.5974,-3.388 4.7947,-3.388 4.0907,0 6.2013,1.98267 7.736,5.17867 l 8.6293,-5.05067 c -3.26,-6.58533 -9.0133,-10.1 -16.3653,-10.1 -7.736,0 -15.024,4.98534 -15.024,13.616 0,8.56534 6.5213,11.76267 13.1693,13.61867 6.712,1.852 9.2694,2.94 9.2694,5.688 0,1.72533 -1.2134,3.64533 -6.0734,3.64533 -5.0493,0 -7.7973,-2.49466 -9.3973,-6.20266 l -8.82,5.11333 c 2.492,6.58666 8.5013,11.06133 17.8987,11.06133"
         style="fill:#0074ff;fill-opacity:1;fill-rule:nonzero;stroke:none;stroke-width:0.426958"
         clip-path="none" /><path
         id="path167"
         d="m -1254.7943,490.18457 v 29.95467 c 0,10.59466 -8.2614,15.07333 -16.648,15.07333 -6.5587,0 -12.0454,-2.46133 -14.9454,-7.63067 l 8.0707,-4.668 c 1.1987,2.20667 3.028,3.972 7.1893,3.972 4.4147,0 7.1267,-2.26933 7.1267,-6.74666 v -2.9 c -2.0813,2.584 -5.108,4.09733 -9.208,4.09733 -8.9533,0 -15.5133,-7.31333 -15.5133,-16.01733 0,-8.70134 6.56,-16.01734 15.5133,-16.01734 4.1,0 7.1267,1.51334 9.208,4.09867 v -3.216 z m -9.2067,15.13467 c 0,-4.35067 -3.1533,-7.316 -7.6307,-7.316 -4.4773,0 -7.6306,2.96533 -7.6306,7.316 0,4.352 3.1533,7.316 7.6306,7.316 4.4774,0 7.6307,-2.964 7.6307,-7.316"
         style="fill:#ff4f3a;fill-opacity:1;fill-rule:nonzero;stroke:none;stroke-width:0.426958"
         clip-path="none" /><path
         id="path169"
         d="m -1432.9447,577.43057 v 0 c 0,-5.83467 -4.7307,-10.56533 -10.5654,-10.56533 -5.836,0 -10.5666,4.73066 -10.5666,10.56533 z"
         style="fill:#ff4f3a;fill-opacity:1;fill-rule:nonzero;stroke:none;stroke-width:0.426958"
         clip-path="none" /><path
         id="path171"
         d="m -1443.5104,562.33684 c 8.336,0 15.0933,6.75733 15.0933,15.09333 h 15.0947 c 0,-16.672 -13.516,-30.18666 -30.188,-30.18666 -16.672,0 -30.188,13.51466 -30.1894,30.18666 h 15.0947 c 0,-8.336 6.7587,-15.09333 15.0947,-15.09333"
         style="fill:#0074ff;fill-opacity:1;fill-rule:nonzero;stroke:none;stroke-width:0.426958"
         clip-path="none" /><path
         id="path173"
         d="m -1443.5104,607.61937 c 16.672,0 30.188,-13.516 30.188,-30.18933 h -15.0947 c 0,8.33733 -6.7573,15.096 -15.0933,15.096 z"
         style="fill:#ffd200;fill-opacity:1;fill-rule:nonzero;stroke:none;stroke-width:0.426958"
         clip-path="none" /><path
         id="path175"
         d="m -1448.3035,603.41111 v -5.63867 c -10.168,1.948 -18.2,9.98 -20.1494,20.14934 h 5.6387 c 1.7693,-7.12267 7.388,-12.74267 14.5107,-14.51067"
         style="fill:#ffd200;fill-opacity:1;fill-rule:nonzero;stroke:none;stroke-width:0.426958"
         clip-path="none" /><path
         id="path177"
         d="m -1413.3228,637.80835 h -60.3773 v -15.09467 h 60.3773 z"
         style="fill:#00cccc;fill-opacity:1;fill-rule:nonzero;stroke:none;stroke-width:0.426958"
         clip-path="none" /><path
         id="path179"
         d="m -1241.3334,593.97351 24.1506,-30.188 h -18.1133 l -24.1493,30.188 z"
         style="fill:#ff4f3a;fill-opacity:1;fill-rule:nonzero;stroke:none;stroke-width:0.426958"
         clip-path="none" /><path
         id="path181"
         d="m -1217.1828,563.84568 h -55.764 v -15.09333 h 55.764 z"
         style="fill:#0074ff;fill-opacity:1;fill-rule:nonzero;stroke:none;stroke-width:0.426958"
         clip-path="none" /><path
         id="path183"
         d="m -1377.0684,562.33684 c 8.336,0 15.0933,6.75733 15.0933,15.09333 h 15.0947 c 0,-16.672 -13.516,-30.18666 -30.188,-30.18666 -16.672,0 -30.188,13.51466 -30.1894,30.18666 h 15.0947 c 0,-8.336 6.7587,-15.09333 15.0947,-15.09333"
         style="fill:#00cccc;fill-opacity:1;fill-rule:nonzero;stroke:none;stroke-width:0.426958"
         clip-path="none" /><path
         id="path185"
         d="m -1377.0684,624.26657 c -8.336,0 -15.0947,-6.75733 -15.0947,-15.09333 h -15.0947 c 0,16.67333 13.516,30.188 30.1894,30.188 16.672,0 30.188,-13.51467 30.188,-30.188 h -15.0947 c 0,8.336 -6.7573,15.09333 -15.0933,15.09333"
         style="fill:#ff4f3a;fill-opacity:1;fill-rule:nonzero;stroke:none;stroke-width:0.426958"
         clip-path="none" /><path
         id="path187"
         d="m -1346.8803,579.78871 -19.0574,29.384 h 6.6427 l 12.4107,-19.13467 z"
         style="fill:#ffd200;fill-opacity:1;fill-rule:nonzero;stroke:none;stroke-width:0.426958"
         clip-path="none" /><path
         id="path189"
         d="m -1376.2435,577.43057 h -6.644 l -20.5867,31.74267 h 6.644 z"
         style="fill:#ffd200;fill-opacity:1;fill-rule:nonzero;stroke:none;stroke-width:0.426958"
         clip-path="none" /><path
         id="path191"
         d="m -1388.7552,577.43057 h -6.644 l -11.8574,18.28267 v 10.24533 z"
         style="fill:#ffd200;fill-opacity:1;fill-rule:nonzero;stroke:none;stroke-width:0.426958"
         clip-path="none" /><path
         id="path193"
         d="m -1370.3758,577.43057 -20.5867,31.74267 h 6.644 l 20.5867,-31.74267 z"
         style="fill:#ffd200;fill-opacity:1;fill-rule:nonzero;stroke:none;stroke-width:0.426958"
         clip-path="none" /><path
         id="path195"
         d="m -1357.8634,577.43057 -20.5867,31.74267 h 6.644 l 20.5867,-31.74267 z"
         style="fill:#ffd200;fill-opacity:1;fill-rule:nonzero;stroke:none;stroke-width:0.426958"
         clip-path="none" /><path
         id="path197"
         d="m -1401.2676,577.43057 h -5.9894 v 9.236 z"
         style="fill:#ffd200;fill-opacity:1;fill-rule:nonzero;stroke:none;stroke-width:0.426958"
         clip-path="none" /><path
         id="path199"
         d="m -1353.4264,609.17284 h 6.536 v -10.08267 z"
         style="fill:#ffd200;fill-opacity:1;fill-rule:nonzero;stroke:none;stroke-width:0.426958"
         clip-path="none" /><path
         id="path201"
         d="m -1291.379,582.22351 c -1.7694,7.12267 -7.388,12.74133 -14.5107,14.51067 v 5.63866 c 10.168,-1.94933 18.2013,-9.98133 20.1493,-20.14933 z"
         style="fill:#ffd200;fill-opacity:1;fill-rule:nonzero;stroke:none;stroke-width:0.426958"
         clip-path="none" /><path
         id="path203"
         d="m -1310.6823,592.52564 c -16.672,0 -30.188,13.516 -30.188,30.188 h 15.0933 c 0,-8.336 6.7587,-15.09467 15.0947,-15.09467 z"
         style="fill:#00cccc;fill-opacity:1;fill-rule:nonzero;stroke:none;stroke-width:0.426958"
         clip-path="none" /><path
         id="path205"
         d="m -1280.4934,637.80835 h -60.3774 v -15.09467 h 60.3774 z"
         style="fill:#0074ff;fill-opacity:1;fill-rule:nonzero;stroke:none;stroke-width:0.426958"
         clip-path="none" /><path
         id="path207"
         d="m -1300.1159,577.43057 c 0,5.836 -4.7307,10.56667 -10.5667,10.56667 -5.8347,0 -10.5653,-4.73067 -10.5653,-10.56667 0,-5.83467 4.7306,-10.56533 10.5653,-10.56533 5.836,0 10.5667,4.73066 10.5667,10.56533"
         style="fill:#0074ff;fill-opacity:1;fill-rule:nonzero;stroke:none;stroke-width:0.426958"
         clip-path="none" /><path
         id="path209"
         d="m -1266.6739,613.86031 h -5.6387 c 1.948,10.168 9.9813,18.2 20.1493,20.14933 v -5.63866 c -7.1226,-1.76934 -12.7413,-7.388 -14.5106,-14.51067"
         style="fill:#ffd200;fill-opacity:1;fill-rule:nonzero;stroke:none;stroke-width:0.426958"
         clip-path="none" /><path
         id="path211"
         d="m -1252.1635,634.01004 c -10.168,-1.94933 -18.2,-9.98133 -20.1494,-20.14933 h 5.6387 c 1.7693,7.12133 7.388,12.74 14.5107,14.51066 z m 4.792,-55.13066 v 15.09466 c 8.3373,0 15.0946,6.75734 15.0946,15.09467 0,8.336 -6.7573,15.09333 -15.0946,15.09333 -8.336,0 -15.0934,-6.75733 -15.0934,-15.09333 h -15.0946 c 0,16.672 13.516,30.188 30.188,30.188 16.6733,0 30.1893,-13.516 30.1893,-30.188 0,-16.67333 -13.516,-30.18933 -30.1893,-30.18933"
         style="fill:#00cccc;fill-opacity:1;fill-rule:nonzero;stroke:none;stroke-width:0.426958"
         clip-path="none" /><path
         id="path213"
         d="m -1305.8894,602.37337 v -5.63867 c 7.1226,-1.77066 12.7413,-7.38933 14.5106,-14.51066 h 5.6387 c -1.9493,10.168 -9.9813,18.2 -20.1493,20.14933 m 25.396,-24.94266 c 0,-16.672 -13.516,-30.188 -30.188,-30.188 -16.6734,0 -30.188,13.516 -30.1894,30.188 h 15.0947 c 0,-8.336 6.7573,-15.09334 15.0933,-15.09334 8.3374,0 15.0947,6.75734 15.0947,15.09334 0,8.33733 -6.7573,15.09466 -15.0933,15.09466 v 15.09467 c 16.672,0 30.188,-13.516 30.188,-30.18933"
         style="fill:#ff4f3a;fill-opacity:1;fill-rule:nonzero;stroke:none;stroke-width:0.426958"
         clip-path="none" /><path
         id="path215"
         d="m -1443.5111,592.52564 c -16.672,0 -30.188,13.516 -30.188,30.188 h 15.0946 c 0,-8.336 6.7574,-15.09467 15.0934,-15.09467 z m -4.792,5.24667 v 5.63866 c -7.1227,1.768 -12.7414,7.388 -14.5107,14.51067 h -5.64 c 1.9493,-10.16933 9.9827,-18.20133 20.1507,-20.14933"
         style="fill:#0074ff;fill-opacity:1;fill-rule:nonzero;stroke:none;stroke-width:0.426958"
         clip-path="none" /></g></g><metadata
     id="metadata10"><rdf:RDF><cc:Work
         rdf:about=""><dc:title>Santiago 2023</dc:title><dc:subject><rdf:Bag><rdf:li>Santiago</rdf:li><rdf:li>2023</rdf:li><rdf:li>Logo</rdf:li><rdf:li>Logotipo</rdf:li><rdf:li>Vector</rdf:li><rdf:li>SVG</rdf:li><rdf:li>PDF</rdf:li><rdf:li>Juegos</rdf:li><rdf:li>Panamericanos</rdf:li><rdf:li>Parapanamericanos</rdf:li></rdf:Bag></dc:subject></cc:Work></rdf:RDF></metadata></svg>
